<?xml version="1.0" standalone="no"?>
<!DOCTYPE svg PUBLIC "-//W3C//DTD SVG 20010904//EN"
 "http://www.w3.org/TR/2001/REC-SVG-20010904/DTD/svg10.dtd">
<svg version="1.0" xmlns="http://www.w3.org/2000/svg"
 width="100%" height="100%" viewBox="0 0 2892.000000 1929.000000"
 preserveAspectRatio="xMidYMid meet">
<metadata>
Created by potrace 1.16, written by Peter Selinger 2001-2019
</metadata>
<g transform="translate(0.000000,1929.000000) scale(0.100000,-0.100000)"
fill="#223252" stroke="none">
<path d="M12905 17100 c-3 -5 -32 -10 -64 -10 -31 0 -62 -5 -68 -11 -7 -7 -33
-8 -74 -4 -110 12 -1121 17 -1133 5 -6 -6 -87 -10 -207 -10 -121 0 -200 -4
-204 -10 -3 -5 -26 -10 -51 -10 -75 0 -160 -68 -98 -78 40 -7 48 -12 36 -24
-9 -9 -15 -9 -24 0 -15 15 -164 16 -173 2 -3 -5 -19 -10 -35 -10 -16 0 -32 5
-35 10 -4 6 -137 10 -365 10 -228 0 -361 -4 -365 -10 -3 -5 -19 -10 -35 -10
-16 0 -32 5 -35 10 -3 6 -17 10 -30 10 -13 0 -27 5 -30 10 -11 18 -112 11
-150 -10 -20 -11 -49 -20 -66 -20 -16 0 -47 -12 -70 -27 l-40 -26 22 -24 c20
-20 32 -23 99 -23 64 0 80 -3 95 -20 10 -11 28 -20 40 -20 19 0 55 -27 55 -42
0 -3 -16 -9 -35 -12 -38 -8 -43 -20 -19 -54 11 -15 25 -22 50 -22 19 0 43 -6
54 -12 16 -10 24 -10 40 -1 16 11 26 8 64 -17 36 -24 54 -30 99 -30 31 0 59 5
62 10 11 18 47 11 52 -10 4 -16 14 -20 45 -20 21 0 56 9 78 20 33 17 59 20
159 20 69 0 122 -4 126 -10 17 -28 154 -2 185 34 10 13 39 16 160 16 134 0
148 -2 165 -20 12 -13 31 -20 56 -20 21 0 55 -7 76 -16 96 -42 137 -52 156
-40 13 8 25 7 48 -6 37 -22 53 -22 69 -3 9 11 34 15 100 15 66 0 91 4 100 15
8 10 31 15 71 15 32 0 61 5 64 10 4 6 108 10 279 10 155 0 276 4 282 9 5 5 54
12 109 15 285 16 293 17 299 33 8 21 -1 33 -26 33 -12 0 -30 8 -40 17 -16 14
-23 15 -38 5 -11 -7 -45 -12 -76 -12 -49 0 -55 2 -44 15 8 10 30 15 62 15 41
0 51 3 55 20 4 14 14 20 34 20 19 0 29 5 29 14 0 22 17 28 38 15 11 -7 27 -9
36 -6 14 5 15 11 6 27 -15 28 -5 40 36 40 24 0 34 5 34 15 0 11 -11 15 -40 15
-42 0 -58 23 -22 32 13 4 18 16 19 46 1 23 7 51 13 62 9 16 8 25 -1 36 -13 16
-55 19 -64 4z"/>
<path d="M14775 17041 c-4 -7 -77 -11 -209 -11 -222 0 -205 3 -318 -68 -31
-20 -36 -27 -36 -66 -1 -44 -1 -44 48 -60 27 -9 51 -16 54 -16 10 0 6 79 -4
85 -25 15 7 25 79 25 65 0 81 3 96 20 10 11 26 20 35 20 9 0 35 -9 58 -20 63
-31 102 -27 142 15 26 26 42 35 68 35 29 0 33 3 30 22 -3 24 -32 36 -43 19z"/>
<path d="M13605 16800 c-3 -5 -19 -10 -35 -10 -16 0 -32 -4 -35 -10 -3 -5 -21
-10 -40 -10 -37 0 -52 -14 -37 -33 6 -7 12 -23 14 -37 3 -24 5 -25 78 -23 81
1 149 11 165 23 6 4 21 10 35 13 34 8 84 61 77 81 -5 13 -25 16 -111 16 -59 0
-108 -4 -111 -10z"/>
<path d="M13925 16540 c-4 -6 -77 -10 -185 -10 -108 0 -181 -4 -185 -10 -4 -6
-137 -10 -365 -10 -228 0 -361 4 -365 10 -3 6 -24 10 -45 10 -21 0 -42 -4 -45
-10 -4 -6 -124 -10 -327 -10 l-320 0 7 -22 c3 -13 10 -36 13 -52 10 -39 35
-55 62 -38 31 19 94 15 115 -8 10 -11 26 -20 35 -20 10 0 20 -8 23 -19 5 -21
64 -54 73 -40 3 5 54 9 113 9 135 0 168 6 175 33 5 19 6 20 32 2 75 -49 95
-58 107 -46 17 17 35 13 42 -9 7 -22 34 -27 52 -9 8 8 13 8 17 0 12 -19 58
-12 83 11 21 19 27 21 45 9 29 -18 98 12 98 44 0 15 15 31 48 53 63 41 79 47
95 34 6 -6 23 -12 37 -15 21 -4 20 -4 -7 -6 -30 -1 -33 -4 -33 -34 0 -54 9
-57 175 -57 149 0 152 0 175 -25 13 -14 32 -25 42 -25 24 0 23 -17 -2 -30 -11
-6 -20 -21 -20 -34 0 -51 -20 -56 -231 -56 -136 0 -199 -4 -207 -12 -9 -9 -16
-7 -32 7 -20 18 -21 18 -35 -1 -8 -10 -15 -23 -15 -28 0 -6 -5 -5 -12 2 -14
14 -114 16 -123 2 -8 -13 -72 -13 -80 0 -4 7 -12 7 -25 0 -27 -14 -173 -13
-188 2 -9 9 -15 9 -24 0 -7 -7 -42 -12 -85 -12 -40 0 -81 -4 -91 -9 -9 -6 -29
-12 -43 -15 -14 -3 -42 -17 -62 -30 -28 -19 -37 -22 -37 -11 0 22 -56 19 -72
-3 -17 -25 -77 -34 -108 -16 -28 15 -166 19 -174 5 -8 -12 -66 -22 -166 -28
-47 -2 -89 -9 -94 -14 -6 -5 -219 -9 -519 -9 -500 0 -509 0 -514 20 -5 18 -14
20 -95 20 -85 0 -89 -1 -83 -20 5 -17 2 -20 -26 -20 -18 0 -41 -7 -50 -16 -17
-15 -20 -15 -43 0 -20 12 -50 16 -135 16 -62 0 -112 -4 -116 -10 -3 -5 -19
-10 -35 -10 -16 0 -41 -5 -55 -12 -22 -10 -28 -8 -48 10 -32 31 -68 28 -102
-8 l-28 -30 -55 30 c-44 24 -68 30 -114 30 -47 0 -60 -4 -65 -17 -3 -10 -15
-28 -26 -41 l-21 -22 -32 31 c-24 24 -37 29 -46 22 -7 -6 -25 -13 -40 -17 -16
-3 -28 -13 -28 -20 0 -29 -125 -43 -140 -16 -14 24 -103 -67 -95 -97 4 -18 -1
-23 -30 -33 -34 -11 -55 -7 -55 10 0 5 11 13 26 16 18 5 24 12 22 28 -3 19
-10 21 -94 24 -76 2 -95 6 -109 22 -19 21 -60 27 -70 10 -3 -5 -24 -10 -45
-10 -21 0 -42 5 -45 10 -9 14 -48 13 -63 -2 -9 -9 -15 -9 -24 0 -7 7 -40 12
-79 12 -37 0 -71 5 -74 10 -8 13 -162 13 -170 0 -4 -7 -12 -7 -25 0 -24 13
-97 13 -105 0 -3 -5 -39 -10 -79 -10 -60 0 -76 3 -91 20 -19 21 -81 27 -113
11 -47 -24 -100 -31 -225 -31 -80 0 -138 -4 -142 -10 -3 -5 -30 -10 -60 -10
-30 0 -57 -4 -60 -10 -3 -5 -31 -10 -61 -10 -30 0 -62 -4 -72 -9 -44 -22 -96
-31 -188 -31 -94 0 -102 -2 -124 -25 -17 -18 -34 -25 -62 -25 -34 0 -38 -3
-38 -26 0 -38 18 -64 44 -64 24 0 95 -22 132 -41 20 -10 54 -9 209 7 33 3 64
10 70 15 5 5 181 9 410 9 376 -1 401 -2 423 -19 12 -11 22 -22 22 -24 0 -3
-20 -19 -44 -35 -44 -30 -45 -30 -62 -11 -14 15 -31 19 -87 19 -79 0 -96 -12
-97 -67 0 -32 1 -33 45 -33 25 0 54 -6 65 -12 16 -10 24 -10 40 0 28 17 60 15
105 -8 22 -11 47 -17 57 -14 13 4 21 -2 28 -20 9 -24 14 -26 70 -26 48 0 71
-6 104 -25 43 -25 45 -25 252 -23 l209 3 0 25 c0 23 -4 25 -58 28 -51 3 -58 6
-72 32 -16 31 -3 52 18 31 6 -6 20 -11 32 -11 12 0 26 -5 31 -10 6 -6 43 -10
85 -8 72 3 74 4 77 30 6 50 26 53 64 8 31 -36 40 -40 79 -40 25 0 50 5 57 12
9 9 15 9 24 0 19 -19 73 -14 93 8 33 36 105 17 105 -28 0 -15 -7 -22 -27 -24
-33 -4 -40 -27 -23 -69 11 -25 18 -29 49 -29 20 0 42 -5 49 -12 9 -9 15 -9 24
0 22 22 75 14 97 -14 34 -44 28 -54 -34 -54 -36 0 -66 -7 -90 -20 -29 -16 -54
-20 -135 -20 l-100 0 0 -40 c0 -22 5 -49 10 -60 6 -11 15 -29 20 -40 6 -11 10
-22 10 -25 0 -11 -266 -5 -278 7 -9 9 -18 9 -37 0 -16 -8 -84 -12 -184 -12
l-157 0 -34 35 -34 35 107 0 108 0 35 36 c28 28 35 40 30 60 -6 23 -11 24 -76
24 -38 0 -72 5 -75 10 -4 6 -103 10 -266 10 l-259 0 0 -34 c0 -19 7 -39 16
-47 9 -7 20 -23 25 -36 10 -28 25 -29 64 -3 38 25 65 26 65 2 0 -28 -32 -52
-68 -52 -17 0 -34 -4 -37 -10 -3 -5 -19 -10 -34 -10 -16 0 -34 -7 -41 -15 -9
-11 -32 -15 -81 -15 -61 0 -69 -2 -69 -19 0 -14 14 -23 55 -37 31 -9 58 -21
61 -25 3 -5 32 -9 64 -9 32 0 62 -4 65 -10 4 -6 57 -10 125 -10 68 0 121 4
125 10 3 6 39 10 80 10 41 0 77 -4 80 -10 3 -5 37 -10 75 -10 38 0 72 -4 75
-10 4 -6 62 -10 141 -10 109 0 134 -3 134 -14 0 -18 -54 -46 -87 -46 -13 0
-32 -5 -43 -12 -15 -10 -24 -9 -44 1 -18 10 -29 11 -38 3 -7 -5 -24 -12 -38
-14 -17 -2 -25 -9 -25 -23 0 -18 8 -20 65 -23 70 -2 76 -4 160 -45 30 -15 69
-27 86 -27 18 0 37 -7 44 -15 11 -13 3 -15 -58 -15 -39 0 -74 -4 -77 -10 -3
-5 -28 -10 -55 -10 -27 0 -52 -4 -55 -10 -3 -6 -50 -10 -105 -10 -55 0 -102 4
-105 10 -4 6 -75 10 -179 10 -165 0 -175 -1 -220 -25 -46 -25 -51 -25 -281
-25 -145 0 -236 -4 -240 -10 -3 -5 -23 -10 -44 -10 -30 0 -44 -8 -80 -44 -39
-40 -49 -45 -100 -49 -84 -8 -118 -17 -137 -38 -15 -17 -32 -19 -140 -19 -71
0 -125 -4 -129 -10 -3 -5 -42 -10 -85 -10 -43 0 -82 -4 -85 -10 -4 -6 -85 -10
-211 -10 -201 0 -205 0 -244 -25 -28 -18 -40 -32 -40 -49 0 -31 -30 -56 -68
-56 -17 0 -34 -4 -37 -10 -3 -5 -18 -10 -33 -10 -15 0 -40 -7 -56 -15 -19 -10
-58 -15 -122 -15 -51 0 -96 -4 -99 -10 -3 -5 -37 -10 -75 -10 -38 0 -72 -4
-75 -10 -3 -5 -28 -10 -55 -10 -27 0 -52 -4 -55 -10 -3 -5 -21 -10 -40 -10
-19 0 -37 -4 -40 -10 -3 -5 -42 -10 -85 -10 -45 0 -82 -5 -85 -11 -10 -15 25
-49 50 -49 12 0 29 -8 39 -19 15 -16 15 -19 1 -31 -21 -18 -19 -33 9 -59 18
-17 34 -22 63 -20 43 3 83 -8 83 -22 0 -5 -20 -9 -44 -9 -36 0 -46 -4 -51 -20
-6 -18 -15 -20 -89 -20 -70 0 -86 -3 -101 -20 -10 -11 -28 -20 -40 -20 -13 0
-28 -7 -35 -15 -9 -11 -32 -15 -81 -15 -37 0 -71 -4 -74 -10 -4 -6 -82 -10
-200 -10 -176 0 -198 -2 -230 -20 -20 -11 -44 -20 -54 -20 -10 0 -24 -7 -32
-16 -16 -19 -83 -54 -104 -54 -20 0 -19 -12 5 -43 14 -18 32 -27 58 -29 35 -3
37 -5 42 -43 l5 -40 75 -3 c75 -3 126 -19 150 -47 7 -9 29 -15 54 -15 23 0 51
-7 62 -15 11 -8 41 -14 72 -15 39 0 52 -4 52 -15 0 -11 -11 -15 -39 -15 -30 0
-40 -4 -44 -20 -4 -17 -14 -20 -60 -20 -31 0 -59 -4 -62 -10 -3 -5 -24 -10
-45 -10 -21 0 -42 5 -45 10 -4 6 -57 10 -125 10 -132 0 -183 -16 -178 -55 3
-17 12 -20 63 -23 33 -2 64 -7 69 -13 6 -5 96 -9 206 -9 184 0 198 -1 215 -20
10 -11 28 -20 40 -20 33 0 95 -70 95 -107 0 -36 -9 -44 -65 -58 -22 -6 -41
-17 -43 -25 -3 -19 57 -50 98 -50 16 0 32 -4 35 -10 3 -5 18 -10 32 -10 16 0
27 -7 30 -19 3 -11 13 -21 24 -24 16 -4 19 -15 19 -66 0 -61 0 -61 29 -61 58
0 62 -7 38 -57 l-22 -45 22 -16 c12 -10 39 -28 59 -42 20 -14 57 -44 83 -67
l46 -42 -27 -28 c-43 -45 -37 -53 41 -53 39 0 73 -4 76 -10 3 -5 24 -10 45
-10 21 0 42 -4 45 -10 3 -5 25 -10 48 -10 39 0 48 -5 105 -63 52 -53 62 -68
62 -98 0 -41 -12 -60 -60 -88 -23 -14 -52 -21 -86 -21 -29 0 -58 -6 -70 -15
-13 -10 -46 -14 -115 -15 -52 0 -99 -4 -105 -9 -5 -6 -36 -11 -69 -13 -49 -2
-61 -7 -70 -24 -25 -51 -32 -54 -135 -54 -81 0 -100 -3 -113 -18 -10 -10 -17
-24 -17 -31 0 -6 -12 -16 -26 -21 -42 -17 -27 -44 26 -48 25 -2 49 -7 54 -13
6 -5 27 -9 47 -9 20 0 42 -7 49 -15 10 -12 39 -15 144 -15 138 0 156 -5 156
-45 0 -23 -40 -45 -82 -45 -34 0 -108 -44 -108 -65 0 -8 6 -15 13 -15 8 0 22
-9 32 -20 15 -17 31 -20 100 -20 76 0 83 -2 108 -28 24 -25 27 -36 27 -97 0
-61 -3 -72 -27 -97 -26 -27 -30 -28 -130 -28 l-103 0 0 -57 c0 -38 5 -62 17
-75 15 -17 15 -19 -2 -38 -10 -11 -26 -22 -35 -25 -27 -8 -33 -35 -14 -56 15
-17 34 -19 162 -19 139 0 147 -1 207 -29 33 -16 67 -36 74 -45 7 -9 28 -16 46
-16 19 0 39 -8 50 -20 13 -15 31 -20 65 -20 34 0 52 -5 65 -20 10 -11 26 -22
35 -25 10 -3 20 -15 23 -25 3 -11 11 -20 19 -20 18 0 38 -46 38 -87 0 -26 -4
-33 -20 -33 -11 0 -25 -9 -32 -20 -8 -12 -24 -20 -40 -20 -23 0 -28 -5 -28
-23 0 -13 5 -28 11 -34 6 -6 9 -23 7 -39 -3 -25 -8 -29 -39 -32 -21 -2 -45
-12 -54 -23 -13 -13 -31 -19 -60 -19 -34 0 -46 -5 -59 -25 -10 -15 -26 -25
-41 -25 -15 0 -26 -7 -30 -20 -6 -17 -15 -20 -74 -20 -59 0 -70 -3 -91 -25
-16 -17 -34 -25 -57 -25 -29 0 -33 -3 -33 -25 0 -23 4 -25 43 -25 31 0 45 -5
55 -20 11 -18 23 -20 130 -20 88 0 123 -4 138 -15 18 -13 16 -14 -23 -15 -29
0 -50 -7 -71 -25 -17 -14 -41 -25 -55 -25 -14 0 -29 -4 -32 -10 -3 -5 -35 -10
-70 -10 -55 0 -65 -3 -70 -20 -4 -14 -15 -20 -35 -20 -16 0 -32 -4 -35 -10 -8
-13 -92 -13 -100 0 -3 6 -52 10 -110 10 -58 0 -107 -4 -110 -10 -4 -6 -95 -10
-239 -10 -217 0 -234 -1 -250 -19 -25 -28 -18 -75 13 -79 13 -2 37 -12 55 -22
38 -21 38 -51 -2 -93 -47 -51 -190 -137 -225 -137 -10 0 -30 -9 -44 -20 -14
-11 -38 -20 -54 -20 -20 0 -36 -10 -56 -35 -20 -24 -36 -35 -55 -35 -15 0 -30
-4 -33 -10 -3 -5 -28 -10 -55 -10 -27 0 -52 -4 -55 -10 -3 -5 -17 -10 -30 -10
-13 0 -27 5 -30 10 -3 6 -35 10 -69 10 -55 0 -64 -3 -69 -20 -5 -19 -14 -20
-121 -20 -112 0 -134 -5 -176 -38 -3 -2 8 -14 24 -27 16 -13 34 -39 40 -57 11
-32 12 -33 76 -36 36 -2 74 2 86 9 27 14 54 6 54 -16 0 -11 11 -15 39 -15 23
0 57 -10 82 -25 40 -22 55 -25 161 -25 111 0 118 -1 129 -22 19 -37 51 -68 71
-68 10 0 23 -9 30 -20 8 -12 24 -20 40 -20 18 0 28 -5 28 -15 0 -12 -14 -15
-69 -15 -39 0 -73 -4 -76 -10 -3 -5 -17 -10 -30 -10 -13 0 -30 -7 -39 -15 -8
-8 -30 -15 -50 -15 -19 0 -37 -4 -40 -9 -3 -5 -25 -12 -48 -15 -24 -4 -60 -9
-81 -12 -39 -6 -47 -23 -21 -45 9 -7 20 -23 25 -36 7 -20 16 -23 57 -23 36 0
54 -5 67 -20 17 -19 31 -20 392 -20 355 0 376 -1 413 -20 37 -19 55 -50 29
-50 -5 0 -36 -12 -67 -26 -44 -20 -61 -23 -74 -15 -10 6 -39 11 -65 11 -65 -1
-106 -35 -102 -85 3 -28 -3 -41 -31 -70 -22 -22 -43 -35 -60 -35 -15 0 -36
-11 -50 -25 -19 -20 -33 -25 -72 -25 -45 0 -49 -2 -46 -22 2 -16 11 -24 28
-26 14 -2 35 -13 47 -25 29 -26 15 -47 -31 -47 -22 0 -40 -8 -56 -25 -20 -21
-33 -25 -80 -25 -44 0 -61 -5 -75 -20 -10 -11 -33 -22 -51 -26 -57 -11 -84
-39 -84 -88 0 -23 6 -48 12 -54 10 -10 8 -14 -10 -18 -12 -4 -22 -12 -22 -19
0 -7 -13 -27 -29 -44 -24 -26 -37 -31 -73 -31 -32 0 -50 -6 -63 -20 -10 -11
-28 -20 -39 -20 -12 0 -30 -7 -40 -15 -11 -8 -34 -15 -52 -15 -18 0 -36 -5
-39 -10 -3 -6 -39 -10 -79 -10 -79 0 -117 -13 -156 -55 -17 -18 -34 -25 -60
-25 -31 0 -44 -9 -100 -65 -64 -65 -65 -65 -121 -65 -38 0 -61 -5 -69 -15 -8
-9 -29 -15 -56 -15 -23 0 -46 -4 -49 -10 -3 -6 -27 -10 -53 -10 -30 0 -58 -7
-77 -20 -25 -17 -47 -20 -142 -20 -64 0 -114 -4 -118 -10 -3 -5 -25 -10 -49
-10 -49 0 -89 -31 -68 -52 7 -7 12 -28 12 -49 0 -32 6 -41 55 -80 30 -24 55
-49 55 -56 0 -7 11 -20 24 -28 13 -9 27 -23 30 -32 9 -22 -41 -73 -70 -73 -13
0 -26 -5 -29 -10 -3 -6 -41 -10 -84 -10 -58 0 -82 -4 -91 -15 -10 -11 -36 -15
-112 -15 -83 0 -100 -3 -105 -17 -4 -10 -1 -19 7 -21 7 -3 30 -20 51 -39 32
-29 37 -39 33 -63 -5 -22 -2 -29 15 -35 34 -10 26 -35 -11 -35 -46 -1 -103
-48 -94 -78 6 -17 15 -22 41 -22 18 0 52 -10 75 -22 34 -18 44 -20 60 -10 24
14 136 16 145 2 3 -6 48 -10 101 -10 106 0 123 -14 54 -45 -39 -18 -40 -19
-40 -72 l0 -53 79 0 c44 0 83 -5 86 -10 4 -6 58 -10 129 -10 98 0 126 -3 136
-15 7 -8 22 -15 35 -15 12 0 30 -9 40 -20 16 -18 31 -20 152 -20 126 0 135 -1
140 -20 3 -12 14 -20 27 -20 12 0 35 -14 52 -31 23 -25 35 -29 58 -25 16 3 35
1 42 -4 8 -8 14 -8 19 0 8 13 62 13 70 0 8 -13 48 -13 60 -1 9 9 45 15 73 12
6 -1 12 -14 12 -29 0 -49 11 -52 181 -52 95 0 160 -4 164 -10 3 -6 37 -10 74
-10 49 0 72 -4 81 -15 9 -11 33 -15 90 -15 64 0 80 -3 95 -20 13 -15 31 -20
67 -20 33 0 48 -4 48 -13 0 -21 -22 -37 -49 -37 -15 0 -39 -7 -55 -15 -18 -10
-57 -15 -111 -15 -69 0 -85 -3 -100 -20 -18 -19 -31 -20 -511 -20 -318 0 -495
-4 -499 -10 -3 -6 -21 -10 -40 -10 -19 0 -37 -4 -40 -10 -4 -6 -57 -10 -126
-10 -110 0 -122 -2 -159 -25 -37 -23 -49 -25 -159 -25 -69 0 -122 -4 -126 -10
-3 -6 -22 -10 -42 -10 -45 0 -91 -14 -161 -49 -65 -32 -82 -49 -61 -62 8 -5
19 -7 26 -4 6 2 17 -3 23 -11 9 -10 37 -14 106 -14 51 0 96 -4 99 -10 4 -6 75
-10 180 -10 105 0 176 -4 180 -10 8 -13 92 -13 100 0 3 6 30 10 59 10 45 0 54
-3 59 -20 4 -17 14 -20 65 -20 61 0 92 -16 71 -37 -6 -6 -9 -28 -7 -49 3 -37
5 -39 38 -42 19 -2 39 -8 45 -13 5 -5 26 -9 46 -9 20 0 42 -7 49 -15 8 -10 31
-15 71 -15 32 0 61 -4 64 -10 10 -17 208 -13 231 5 15 11 58 14 212 15 105 0
192 -4 192 -8 0 -23 74 -42 161 -42 70 0 98 -4 129 -20 22 -11 52 -20 68 -20
40 0 52 -16 40 -51 l-10 -29 -103 0 c-59 0 -107 -4 -110 -10 -3 -5 -42 -10
-85 -10 -43 0 -82 -4 -85 -10 -4 -6 -63 -10 -145 -10 -82 0 -141 4 -145 10 -3
6 -26 10 -50 10 -24 0 -47 -4 -50 -10 -3 -5 -21 -10 -40 -10 -19 0 -37 -4 -40
-10 -3 -5 -15 -10 -25 -10 -24 0 -53 -41 -44 -64 5 -12 19 -16 60 -16 30 0 63
-5 74 -12 15 -10 27 -10 55 1 24 8 40 9 48 3 7 -6 28 -12 47 -14 29 -2 36 -7
38 -29 2 -20 15 -31 58 -52 49 -25 65 -27 169 -27 114 0 115 0 115 -24 0 -15
-7 -26 -20 -29 -25 -7 -26 -44 -1 -52 10 -3 26 -14 36 -25 10 -11 30 -20 44
-20 l26 -1 -27 -15 c-16 -8 -28 -19 -28 -23 0 -5 -21 -21 -47 -35 -42 -24 -57
-27 -150 -27 -56 0 -105 -4 -108 -10 -4 -5 -34 -9 -69 -9 -64 0 -126 -21 -126
-43 0 -6 -15 -26 -32 -44 -27 -27 -30 -37 -21 -51 11 -17 26 -18 94 -6 22 3
39 2 43 -5 4 -6 18 -11 32 -11 19 0 29 -10 46 -45 20 -42 25 -45 60 -45 27 0
41 -6 50 -20 11 -17 24 -20 84 -20 63 0 72 -2 77 -20 5 -18 14 -20 115 -20 63
0 113 4 117 10 8 13 122 13 130 0 3 -5 28 -10 54 -10 38 0 52 -5 71 -25 19
-20 21 -27 10 -40 -10 -12 -36 -15 -121 -15 -61 0 -110 -4 -114 -10 -3 -6 -48
-10 -100 -10 -52 0 -97 -4 -100 -10 -4 -6 -62 -10 -141 -10 -142 0 -171 -7
-221 -53 -32 -29 -29 -47 7 -47 17 0 30 -4 30 -10 0 -5 13 -10 28 -10 15 0 32
-4 38 -10 5 -5 54 -11 109 -12 l100 -3 3 -27 3 -28 -95 0 c-52 0 -98 -4 -101
-10 -3 -5 -30 -10 -59 -10 -56 0 -156 -41 -156 -65 0 -7 9 -24 20 -38 11 -14
20 -29 20 -34 0 -5 -24 -15 -53 -22 -103 -24 -133 -34 -207 -72 -74 -37 -75
-38 -78 -79 l-3 -41 183 3 c101 2 197 9 215 15 27 9 38 8 70 -8 29 -15 58 -19
130 -19 50 0 95 -4 98 -10 4 -6 65 -10 150 -10 85 0 146 -4 150 -10 3 -5 25
-10 49 -10 44 0 69 -13 79 -43 10 -28 -35 -44 -67 -24 -21 14 -26 14 -36 2 -9
-11 -34 -15 -86 -15 -63 0 -76 -3 -86 -20 -12 -18 -24 -20 -134 -20 -104 0
-123 -2 -137 -18 -10 -10 -14 -22 -10 -25 3 -4 59 -7 124 -7 68 0 120 -4 124
-10 4 -6 95 -10 239 -10 195 0 236 -2 246 -15 16 -19 34 -19 50 0 7 9 29 15
51 15 21 0 41 5 44 10 3 6 28 10 55 10 27 0 52 -4 55 -10 4 -6 83 -10 205 -10
122 0 201 4 205 10 3 6 25 10 49 10 23 0 46 4 52 9 5 5 20 11 34 13 19 2 26
10 28 30 2 20 10 30 28 34 13 4 29 15 35 25 9 17 22 19 129 19 68 0 121 -4
125 -10 8 -13 52 -13 60 0 3 5 42 10 85 10 43 0 82 -5 85 -10 3 -6 19 -10 35
-10 16 0 32 -4 35 -10 10 -16 67 -12 87 7 14 13 21 14 30 5 7 -7 41 -12 79
-12 37 0 71 -4 74 -10 4 -6 68 -10 159 -10 125 0 156 3 166 15 11 13 16 13 45
-5 41 -26 42 -26 60 10 14 27 20 30 62 30 26 0 54 -6 62 -14 19 -16 159 -28
167 -14 3 5 17 2 30 -7 14 -9 29 -13 35 -9 6 3 332 5 725 5 515 -2 719 1 735
9 16 9 24 8 38 -4 24 -22 159 -22 187 -1 26 19 53 19 76 -2 15 -13 23 -15 37
-6 18 11 288 10 299 -2 11 -11 42 -4 83 20 79 45 189 29 189 -27 0 -12 -11
-14 -54 -10 -33 3 -56 0 -60 -7 -4 -6 -29 -11 -57 -11 -38 0 -52 -4 -61 -20
-11 -18 -24 -20 -113 -20 -60 0 -105 -4 -112 -11 -8 -8 -13 -8 -17 0 -9 14
-232 15 -241 1 -3 -5 -17 -10 -30 -10 -13 0 -27 5 -30 10 -9 14 -51 13 -75 -2
-16 -10 -23 -9 -45 12 -19 18 -28 21 -37 12 -7 -7 -45 -12 -98 -12 -80 0 -88
-2 -111 -26 -21 -22 -30 -25 -64 -20 -26 4 -48 16 -63 34 -19 23 -24 25 -32
12 -28 -45 -27 -44 -59 -30 -22 9 -35 9 -44 2 -7 -6 -139 -11 -365 -12 -298
-1 -358 -3 -377 -16 -15 -10 -25 -12 -30 -5 -3 6 -39 11 -78 11 -76 0 -90 5
-100 33 -5 14 -19 17 -86 17 -44 0 -83 5 -86 10 -3 6 -23 10 -44 10 -20 0 -42
5 -49 12 -8 8 -15 8 -27 -2 -12 -10 -19 -10 -27 -2 -18 18 -52 14 -66 -8 -8
-13 -23 -20 -41 -20 -17 0 -33 -4 -36 -10 -3 -5 -17 -10 -30 -10 -13 0 -27 5
-30 10 -11 17 -61 11 -80 -10 -14 -16 -31 -20 -76 -20 -32 0 -61 5 -64 10 -9
14 -69 12 -84 -2 -10 -11 -16 -9 -31 10 -21 25 -56 29 -85 8 -23 -15 -262 -28
-271 -14 -3 4 -15 1 -27 -7 -15 -10 -46 -15 -99 -15 -69 0 -78 -2 -78 -18 0
-37 53 -65 77 -41 8 8 22 5 51 -10 51 -26 64 -26 87 -1 15 17 31 20 96 20 43
0 81 -4 84 -10 8 -12 95 -13 113 -1 14 8 83 -7 98 -22 4 -4 62 -7 129 -7 117
0 122 -1 145 -25 23 -24 26 -25 172 -25 83 0 158 -5 169 -10 14 -8 27 -6 50 6
41 21 56 7 38 -35 l-14 -31 -262 0 c-164 0 -264 -4 -268 -10 -9 -14 -91 -12
-115 2 -16 11 -23 8 -48 -15 -21 -20 -38 -27 -69 -27 -59 0 -106 -43 -101 -91
3 -30 7 -34 34 -37 18 -2 47 6 68 17 31 18 54 21 156 21 68 0 121 4 125 10 3
6 42 10 85 10 43 0 82 5 85 10 11 17 99 11 143 -10 46 -22 68 -25 77 -10 3 6
21 10 40 10 19 0 37 5 40 10 3 6 51 10 109 10 96 0 104 1 126 25 18 19 34 25
66 25 34 0 44 4 49 20 3 11 12 20 19 20 19 0 46 34 46 58 0 14 6 22 18 22 9 0
30 7 46 15 15 8 46 15 67 15 21 0 41 5 44 10 3 6 43 10 89 10 96 0 116 -13
116 -73 0 -40 47 -147 65 -147 6 0 24 -13 40 -30 27 -28 28 -31 16 -68 -16
-48 -11 -78 11 -74 10 1 25 -9 34 -23 15 -24 21 -25 103 -25 67 0 96 -5 126
-20 49 -25 57 -25 80 0 15 17 31 20 105 20 79 0 88 -2 93 -20 4 -15 14 -20 40
-20 20 0 39 -5 42 -10 8 -13 132 -13 140 0 3 5 37 10 75 10 38 0 72 5 75 10 8
13 52 13 60 0 11 -18 81 -11 100 10 17 18 31 20 177 20 87 0 158 -4 158 -8 0
-5 -11 -19 -25 -32 -20 -19 -25 -33 -25 -70 0 -43 2 -47 35 -63 20 -9 49 -17
65 -17 16 0 32 -4 35 -10 9 -15 36 -12 58 7 18 17 19 17 28 0 8 -14 25 -17 94
-17 46 0 87 4 90 10 3 6 49 10 104 10 63 0 101 4 109 12 10 10 17 10 32 0 24
-14 86 -16 95 -2 4 6 58 10 129 10 107 0 125 2 140 19 14 16 39 19 189 25 128
5 187 12 231 27 33 10 76 19 97 19 32 0 41 -5 59 -35 12 -19 19 -39 15 -45 -9
-15 4 -50 19 -50 7 0 21 -9 31 -20 10 -11 28 -20 40 -20 12 0 32 -11 45 -25
21 -23 31 -25 106 -25 46 0 86 5 89 10 8 13 142 13 150 0 3 -5 28 -10 54 -10
35 0 53 5 66 20 11 12 31 20 50 20 21 0 40 9 55 25 23 25 90 36 90 16 0 -27
-23 -62 -45 -71 -14 -5 -28 -17 -31 -25 -4 -8 -18 -15 -34 -15 -15 0 -35 -9
-45 -20 -13 -14 -31 -20 -62 -20 -29 0 -56 -8 -83 -25 -40 -25 -40 -25 -40
-89 0 -62 1 -65 32 -80 21 -11 35 -13 42 -6 6 6 63 10 132 10 103 0 123 2 128
16 4 9 1 23 -6 31 -20 25 37 63 77 53 6 -2 28 -6 50 -9 33 -5 41 -10 43 -31 6
-43 30 -60 84 -60 41 0 51 3 55 20 5 19 14 20 146 20 108 0 144 -3 156 -14 13
-12 71 -16 274 -22 142 -4 260 -11 263 -16 7 -11 102 -10 109 2 8 13 92 13
100 0 3 -5 30 -10 60 -10 30 0 57 5 60 10 4 6 93 10 234 10 138 0 231 4 237
10 7 7 21 -2 44 -25 l35 -36 -30 -23 c-17 -13 -33 -22 -37 -20 -9 6 -83 -33
-99 -52 -8 -9 -32 -14 -74 -14 -49 0 -66 4 -80 20 -15 16 -31 20 -86 20 -58 0
-70 -3 -79 -20 -10 -18 -21 -20 -145 -20 -78 0 -136 -4 -140 -10 -8 -13 -72
-13 -80 0 -3 6 -50 10 -104 10 -85 0 -100 -3 -116 -20 -16 -17 -31 -20 -109
-20 -95 0 -108 -4 -119 -32 -9 -25 -21 -22 -37 7 -12 22 -11 28 8 48 l22 23
-23 22 c-19 18 -39 22 -133 28 -79 5 -113 4 -118 -5 -5 -7 -49 -11 -130 -11
-110 0 -125 -2 -141 -20 -10 -11 -24 -20 -32 -20 -7 0 -16 -8 -20 -17 -11 -31
-56 -73 -78 -73 -16 0 -27 -11 -40 -39 -9 -22 -26 -41 -36 -44 -11 -3 -19 -14
-19 -26 0 -20 -4 -21 -158 -21 -146 0 -160 -2 -177 -20 -14 -15 -31 -20 -70
-20 -28 0 -56 5 -63 12 -8 8 -15 8 -25 0 -10 -9 -27 -6 -68 10 -66 25 -224 27
-249 2 -23 -23 -1 -46 66 -70 88 -32 93 -34 100 -57 13 -41 45 -77 69 -77 13
0 27 -5 30 -10 8 -13 102 -13 110 0 3 6 17 10 30 10 13 0 27 5 30 10 13 22 46
9 66 -25 14 -23 28 -35 43 -35 26 0 56 -30 81 -80 21 -42 32 -50 67 -50 26 0
155 41 190 60 23 13 75 13 83 0 3 -5 46 -10 94 -10 67 0 92 -4 101 -15 16 -19
54 -19 70 0 10 12 36 15 113 15 93 0 170 13 191 32 6 4 57 8 113 8 84 0 111 4
143 20 25 13 59 20 93 20 36 0 59 5 67 15 7 8 27 15 46 15 18 0 36 5 39 10 3
6 28 10 54 10 35 0 53 5 66 20 11 12 31 20 51 20 18 0 36 5 39 10 3 6 22 10
41 10 20 0 52 11 77 27 34 22 52 27 92 24 45 -2 53 1 79 28 26 27 37 31 82 31
29 0 56 5 59 10 3 6 19 10 35 10 16 0 32 4 35 10 3 6 49 10 102 10 87 0 98 2
125 25 25 21 40 25 99 25 58 0 71 3 81 20 12 18 24 20 155 20 156 0 163 -3
116 -52 -21 -22 -36 -28 -70 -28 -24 0 -58 -9 -78 -20 -20 -11 -52 -20 -73
-20 -21 0 -56 -11 -81 -25 -30 -17 -58 -25 -92 -25 -42 0 -49 -3 -49 -20 0
-19 7 -20 118 -20 106 0 121 2 137 20 17 18 31 20 175 20 108 0 160 4 168 12
9 9 15 9 24 0 8 -8 49 -12 120 -12 100 0 108 1 108 19 0 11 -4 23 -10 26 -5 3
-10 23 -10 44 0 37 -3 40 -55 66 -56 27 -85 59 -68 76 6 6 15 4 23 -6 10 -12
41 -15 179 -15 166 0 168 0 191 25 l23 25 283 0 c178 0 285 4 289 10 8 13 172
13 180 0 3 -5 21 -10 40 -10 19 0 37 5 40 10 4 6 108 10 280 10 172 0 276 4
280 10 4 6 145 10 389 10 327 0 387 -2 414 -16 18 -8 34 -20 38 -25 9 -15 -16
-39 -42 -39 -12 0 -26 -4 -29 -10 -3 -5 -28 -10 -55 -10 -27 0 -52 -4 -55 -10
-4 -6 -58 -10 -131 -10 -122 0 -124 0 -124 -23 0 -17 9 -25 38 -35 66 -22 92
-24 117 -8 20 13 61 16 243 16 l220 0 51 32 c60 39 65 58 17 58 -42 0 -72 25
-55 46 6 8 29 14 50 14 21 0 41 5 44 10 4 6 72 10 170 10 l164 0 45 -45 c43
-42 49 -45 100 -45 37 0 71 -7 101 -22 38 -18 49 -20 65 -10 11 7 33 12 49 12
17 0 33 5 36 10 3 6 33 10 65 10 32 0 62 5 65 10 17 28 87 60 130 60 44 0 45
1 70 50 28 56 58 66 90 30 l18 -20 24 22 c15 14 23 33 23 55 0 18 10 49 23 68
18 29 28 35 59 35 27 0 38 5 43 19 3 10 15 21 25 24 14 4 20 14 20 34 0 23 -8
31 -39 46 -50 23 -226 24 -255 2 -11 -8 -30 -15 -43 -15 -12 0 -28 -9 -35 -20
-11 -17 -24 -20 -85 -20 -39 0 -75 -4 -78 -10 -3 -5 -30 -10 -59 -10 -54 0
-84 19 -99 63 -6 16 -36 17 -441 17 -279 0 -437 -4 -441 -10 -4 -6 -80 -10
-195 -10 -115 0 -191 -4 -195 -10 -4 -6 -58 -10 -130 -10 -72 0 -126 -4 -130
-10 -3 -6 -21 -10 -40 -10 -19 0 -37 -5 -40 -10 -4 -6 -95 -10 -240 -10 -145
0 -236 -4 -240 -10 -8 -13 -68 -13 -82 1 -8 8 -13 8 -17 0 -4 -6 -20 -11 -37
-11 -16 0 -29 -5 -29 -10 0 -7 -41 -10 -116 -8 -92 2 -118 6 -124 18 -38 76
-40 90 -25 121 17 32 12 69 -9 69 -15 0 -66 52 -66 68 0 15 153 17 181 2 14
-8 19 -21 19 -49 0 -40 23 -71 53 -71 10 0 25 18 37 45 11 25 26 45 34 45 7 0
21 9 31 20 14 16 31 20 79 20 50 0 63 4 74 20 11 18 23 20 148 20 133 0 137 1
160 25 13 14 32 25 42 25 10 0 26 8 36 19 16 17 16 21 -1 67 -18 48 -19 49
-68 55 -28 3 -67 14 -87 24 -31 15 -42 16 -63 7 -33 -15 -147 -16 -162 -1 -6
6 -41 9 -87 7 -66 -3 -76 -1 -76 14 0 34 -34 38 -287 38 -191 -1 -254 -4 -273
-14 -16 -9 -42 -12 -76 -9 -33 4 -54 1 -58 -6 -4 -6 -24 -11 -45 -11 -27 0
-44 -7 -61 -25 -13 -14 -33 -25 -46 -25 -12 0 -27 -7 -34 -15 -8 -10 -30 -15
-61 -15 -26 0 -51 -4 -54 -10 -3 -5 -37 -10 -74 -10 -60 0 -69 -2 -74 -20 -4
-18 -14 -20 -75 -20 -56 0 -72 -4 -87 -20 -14 -15 -31 -20 -72 -20 -47 0 -55
-3 -65 -25 -10 -22 -17 -25 -67 -25 -63 0 -75 -6 -85 -38 -4 -12 -25 -34 -46
-47 -21 -13 -41 -29 -45 -35 -4 -6 -102 -10 -284 -10 l-277 0 -34 35 c-26 27
-40 35 -57 30 -14 -3 -34 2 -49 12 -21 13 -30 14 -45 5 -10 -7 -47 -12 -81
-12 -60 -1 -64 -2 -88 -35 l-25 -34 -101 -1 c-88 0 -103 -3 -119 -20 -14 -15
-31 -20 -68 -20 -38 0 -58 -6 -83 -25 -22 -17 -45 -25 -72 -25 -31 0 -41 -4
-45 -20 -7 -26 -23 -26 -30 0 -4 17 -14 20 -61 20 -38 0 -56 -4 -57 -12 0 -7
-26 -30 -58 -50 -72 -46 -112 -49 -146 -12 -14 15 -25 27 -25 28 0 1 9 25 20
55 17 44 19 59 10 86 l-11 33 -208 1 c-201 1 -209 1 -214 -19 -5 -18 -13 -20
-99 -20 -90 0 -95 1 -121 28 -35 37 -34 65 3 92 26 19 30 28 30 69 0 26 -5 52
-11 58 -6 6 -8 20 -4 32 6 20 13 21 156 21 130 0 156 3 191 20 34 16 62 20
158 20 103 0 119 -2 135 -19 16 -19 33 -20 316 -21 289 0 299 1 311 20 8 13
24 20 43 20 30 0 99 21 111 33 4 4 17 7 29 7 24 0 81 26 90 41 4 5 88 9 195 9
115 0 191 4 195 10 3 6 17 10 30 10 13 0 27 5 30 10 10 17 41 11 61 -11 15
-17 29 -20 81 -18 35 1 66 -1 70 -4 3 -4 19 -7 35 -7 40 0 88 -22 117 -54 24
-25 27 -26 151 -26 114 0 129 2 145 20 17 18 31 20 170 20 l151 0 27 28 c20
21 27 38 27 68 0 73 4 74 272 74 197 0 238 2 248 15 7 8 25 15 41 15 15 0 31
4 34 10 3 5 48 10 98 10 81 0 94 2 105 20 11 19 23 20 176 20 99 0 167 4 171
10 3 6 28 10 54 10 26 0 51 4 56 9 6 5 90 11 187 13 167 3 178 4 200 26 14 12
34 22 46 22 11 0 24 5 27 10 3 6 28 10 55 10 27 0 52 5 55 10 3 6 37 10 74 10
55 0 71 4 86 20 13 14 31 20 60 20 31 0 47 6 65 25 23 25 26 25 176 25 84 0
155 4 158 9 7 11 60 21 146 28 36 2 69 9 75 14 5 5 35 9 66 9 32 0 61 5 64 10
4 6 63 10 145 10 123 0 144 -3 176 -21 28 -15 42 -18 58 -11 12 6 47 18 78 27
58 17 108 53 108 78 0 14 -27 40 -99 95 -16 12 -38 22 -49 22 -12 0 -23 9 -27
19 -5 17 -19 20 -113 26 -146 8 -445 8 -512 0 -48 -6 -58 -4 -74 14 -17 18
-31 21 -107 21 -48 0 -91 -4 -94 -10 -3 -5 -33 -10 -65 -10 -32 0 -62 -4 -65
-10 -3 -5 -39 -10 -79 -10 -58 0 -76 4 -89 18 -20 22 -22 63 -5 80 10 10 10
17 0 32 -20 32 -14 54 23 90 20 19 35 44 35 57 0 20 -5 23 -39 23 -22 0 -43
-5 -46 -10 -4 -7 -14 -5 -28 5 -17 12 -55 15 -182 15 -169 0 -163 -1 -237 52
-14 10 -22 10 -38 0 -28 -17 -40 -15 -40 7 0 11 -5 23 -11 26 -6 4 6 21 28 41
38 33 39 33 140 34 57 0 105 4 108 10 3 5 33 10 65 10 32 0 62 4 65 10 3 6 16
10 27 10 12 0 40 11 62 24 38 22 151 40 225 37 14 -1 35 6 47 14 17 11 51 15
118 15 52 0 98 4 101 10 3 5 19 10 35 10 16 0 32 4 35 10 4 6 62 10 140 10 78
0 136 4 140 10 3 6 17 10 30 10 13 0 30 7 39 15 10 11 37 15 98 15 65 0 90 4
116 20 36 22 37 25 20 63 -12 25 -18 27 -70 27 -31 0 -60 4 -63 10 -3 6 -16
10 -29 10 -12 0 -33 11 -46 25 -23 24 -28 25 -149 25 -111 0 -131 3 -168 22
-35 18 -43 28 -43 50 0 17 -8 31 -19 38 -11 5 -21 20 -23 32 -3 23 -6 23 -149
26 -131 2 -148 5 -164 22 -15 16 -31 20 -91 20 -40 0 -76 -4 -79 -10 -4 -6
-95 -10 -240 -10 -145 0 -236 -4 -240 -10 -3 -5 -16 -10 -29 -10 -12 0 -33
-11 -46 -25 -23 -24 -27 -25 -166 -25 -84 0 -145 -4 -149 -10 -3 -5 -33 -10
-65 -10 -32 0 -62 -4 -65 -10 -4 -6 -58 -10 -130 -10 -72 0 -126 -4 -130 -10
-3 -5 -33 -10 -65 -10 -32 0 -62 -4 -65 -10 -4 -6 -65 -10 -150 -10 -134 0
-145 1 -155 20 -14 26 -61 26 -85 0 -16 -17 -31 -20 -115 -20 -73 0 -101 4
-110 15 -19 23 -2 35 49 35 31 0 53 5 61 15 9 10 31 15 72 15 l59 0 -3 67 -3
68 -70 3 c-38 2 -74 7 -80 13 -12 12 -62 12 -70 -1 -3 -6 -44 -10 -90 -10 -63
0 -84 -3 -88 -15 -10 -25 -83 -55 -136 -55 -27 0 -53 -4 -56 -10 -3 -5 -47
-10 -97 -10 -81 0 -90 -2 -95 -20 -4 -15 -14 -20 -39 -20 -27 0 -37 -5 -46
-25 -9 -20 -18 -25 -48 -25 -20 0 -41 -5 -47 -11 -11 -11 -25 -10 -128 7 -22
3 -52 18 -68 33 l-29 26 -22 -27 c-13 -18 -31 -28 -47 -28 -14 0 -34 -9 -44
-20 -14 -15 -31 -20 -71 -20 -29 0 -56 -4 -59 -10 -11 -17 -192 -12 -228 6
-38 20 -119 103 -111 116 3 4 65 8 139 8 78 0 136 4 140 10 3 6 33 10 65 10
32 0 62 5 65 10 4 6 62 10 140 10 78 0 136 4 140 10 3 6 32 10 64 10 40 0 63
5 71 15 9 11 32 15 81 15 58 0 71 3 81 20 12 18 24 20 151 20 118 0 143 3 177
20 22 11 48 20 58 20 10 0 27 9 37 20 10 11 28 20 40 20 12 0 32 11 45 25 21
23 31 25 106 25 46 0 86 5 89 10 3 6 30 10 60 10 30 0 57 5 60 10 3 6 52 10
110 10 58 0 107 4 110 10 4 6 55 10 119 10 89 0 116 3 126 15 10 12 38 15 131
15 68 0 120 4 124 10 3 6 28 10 55 10 27 0 52 5 55 10 4 6 63 10 146 10 76 0
147 4 157 9 52 26 102 31 320 31 143 0 233 4 237 10 3 5 28 10 54 10 31 0 53
5 61 15 8 10 31 15 66 15 38 0 54 4 54 13 0 23 -23 37 -60 37 -20 0 -41 5 -48
12 -8 8 -15 8 -25 0 -11 -9 -18 -8 -32 8 -14 16 -31 20 -82 20 -62 0 -63 0
-63 28 0 42 17 52 85 52 41 0 73 6 100 20 22 11 59 20 85 20 26 0 65 9 88 20
27 13 61 20 100 20 50 0 62 4 82 25 21 23 31 25 101 25 43 0 81 5 84 10 3 6
28 10 55 10 27 0 52 5 55 10 4 6 60 10 136 10 107 0 134 3 156 18 24 15 60 17
284 20 257 4 257 4 280 28 21 22 30 24 120 24 89 0 98 2 104 20 6 18 15 20
107 20 83 0 105 3 121 17 17 16 50 18 302 21 l283 4 23 24 c12 13 32 24 44 24
24 0 55 29 55 52 0 8 -11 25 -25 38 -14 13 -25 29 -25 37 0 9 -16 13 -55 13
-30 0 -64 6 -75 12 -16 10 -24 10 -40 0 -29 -18 -71 -15 -105 8 -28 19 -47 20
-287 20 -200 0 -258 3 -258 13 0 62 63 157 104 157 13 0 31 9 41 20 13 15 31
20 66 20 39 0 49 4 54 20 6 19 15 20 169 20 89 0 166 4 171 9 18 16 106 23
361 27 l251 5 13 24 c13 24 17 25 115 25 89 0 104 2 120 20 10 11 31 20 47 20
25 0 28 3 28 33 0 38 -25 67 -58 67 -12 0 -23 8 -27 20 -6 19 -15 20 -180 20
-105 0 -176 -4 -180 -10 -10 -16 -118 -12 -153 6 -29 14 -32 20 -32 63 0 54
-12 71 -51 71 -18 0 -35 9 -48 26 -13 17 -26 24 -37 20 -8 -3 -25 1 -37 9 -12
8 -30 15 -41 15 -11 0 -35 5 -53 12 -47 17 -45 48 6 76 21 12 44 29 51 37 7 9
29 15 50 15 27 0 48 8 70 26 l31 27 -25 26 c-23 24 -26 35 -26 106 0 55 -4 83
-15 95 -8 9 -16 27 -17 39 -2 19 6 29 41 47 24 13 55 24 68 24 13 0 41 9 63
20 22 11 53 20 69 20 16 0 33 5 36 10 3 6 21 10 40 10 19 0 37 5 40 10 8 13
202 13 210 0 3 -6 48 -10 100 -10 52 0 97 -4 100 -10 4 -6 83 -10 204 -10 189
0 199 -1 204 -20 3 -10 20 -26 38 -33 29 -13 37 -13 56 -1 12 8 31 14 41 14
11 0 22 9 25 20 5 21 41 28 52 10 9 -15 78 -12 111 5 42 20 76 60 72 82 -3 15
-15 18 -86 21 -81 3 -103 14 -59 31 13 5 29 16 36 25 7 9 26 16 42 16 16 0 37
4 47 9 45 22 97 31 190 31 l102 0 25 -40 c23 -37 29 -40 69 -40 30 0 48 6 61
20 12 14 33 20 74 22 l56 3 3 40 c3 32 10 45 38 65 43 32 45 73 3 78 -15 2
-35 12 -45 23 -11 12 -30 19 -54 19 -36 0 -70 23 -70 48 0 6 13 18 28 26 16 8
34 22 41 30 10 12 32 16 82 16 37 0 71 5 74 10 3 6 17 10 30 10 13 0 27 5 30
10 4 6 61 10 139 10 72 0 136 4 141 9 6 5 26 11 45 13 33 3 35 6 38 41 l3 37
-118 0 c-79 0 -123 -4 -131 -12 -9 -9 -15 -9 -24 0 -7 7 -33 12 -59 12 -26 0
-51 5 -54 10 -3 6 -23 10 -44 10 -21 0 -44 6 -50 14 -10 11 -3 17 36 32 26 9
57 26 69 36 16 14 37 18 92 18 61 0 74 3 84 20 10 16 24 20 69 20 43 0 60 5
74 20 18 20 18 21 -6 46 -13 14 -35 30 -48 35 -22 9 -23 11 -7 28 23 25 22
103 -2 124 -16 14 -44 17 -180 17 -96 0 -163 -4 -167 -10 -3 -5 -24 -10 -45
-10 -21 0 -42 5 -45 10 -8 13 -222 13 -230 0 -8 -13 -202 -13 -210 0 -3 6 -15
10 -27 10 -17 0 -37 12 -96 61 -23 19 -8 52 38 87 40 31 45 40 47 76 0 22 2
47 2 54 1 8 24 12 79 12 71 0 81 2 102 25 22 23 31 25 111 25 48 0 91 5 94 10
3 6 17 10 30 10 15 0 26 7 30 20 4 11 15 20 26 20 11 0 32 6 47 14 15 7 72 16
130 18 76 4 107 9 120 21 13 12 37 17 85 17 36 0 69 5 72 10 3 6 25 10 49 10
47 0 93 19 121 50 15 17 31 20 105 20 l86 0 18 37 c17 37 17 38 -4 55 -24 19
-95 25 -105 8 -4 -6 -91 -10 -229 -10 -210 0 -224 1 -241 20 -17 19 -17 21 0
40 16 18 31 20 121 20 92 0 104 2 114 19 28 53 38 51 -341 50 -193 0 -354 3
-358 7 -3 4 600 4 1341 0 l1347 -7 -63 60 c-53 52 -68 61 -99 61 -20 0 -39 5
-42 10 -8 13 -414 13 -434 1 -9 -6 -21 -5 -32 2 -14 9 -21 9 -30 0 -13 -13
-55 3 -78 31 -10 12 -33 16 -97 16 -45 0 -86 -4 -89 -10 -8 -13 -288 -13 -301
0 -6 6 -153 11 -379 12 -284 2 -369 6 -373 16 -2 6 4 12 12 12 9 0 21 10 26
23 6 12 16 30 22 41 10 14 10 20 1 23 -32 12 -64 47 -61 67 3 18 11 21 63 24
33 2 64 7 69 13 6 5 25 9 42 9 18 0 36 5 39 10 3 6 20 10 36 10 16 0 53 12 82
26 45 24 67 28 172 32 78 3 128 9 142 18 17 10 63 14 181 14 l159 0 28 40 c21
30 34 40 55 40 18 0 33 8 44 25 16 24 15 25 -10 31 -48 12 -803 -1 -816 -14
-18 -18 -142 -16 -158 3 -9 11 -35 15 -101 15 -72 0 -89 3 -89 15 0 12 13 15
59 15 33 0 63 5 66 10 3 6 17 10 30 10 13 0 27 5 30 10 3 6 48 10 100 10 52 0
97 4 100 10 3 6 28 10 54 10 32 0 64 8 95 25 27 14 64 25 86 25 21 0 42 5 45
10 3 6 24 10 46 10 40 0 51 14 27 38 -9 9 -168 12 -654 12 -462 0 -645 3 -650
11 -4 7 -24 9 -50 6 -23 -2 -47 0 -53 6 -6 6 -109 10 -271 10 -143 0 -263 4
-266 9 -3 4 -75 8 -160 8 -120 0 -155 3 -152 13 3 9 56 14 189 19 101 4 245
11 319 17 893 63 1670 113 1775 112 71 0 132 3 135 8 3 5 70 14 149 20 143 11
187 20 120 23 -19 0 2 4 46 9 44 4 130 5 190 2 99 -5 112 -4 127 13 16 19 14
19 -85 17 -56 -1 -192 -12 -301 -23 -144 -16 -206 -18 -220 -11 -25 13 -72 21
-661 111 -253 39 -473 75 -490 80 -28 8 -28 8 -5 9 224 8 1088 53 1125 60 33
6 -65 9 -295 10 l-345 2 43 22 c23 11 42 25 42 31 0 24 55 66 86 66 18 0 36 5
39 10 3 6 19 10 35 10 16 0 32 5 35 10 3 6 21 10 40 10 19 0 37 5 40 10 3 6
28 10 54 10 26 0 52 5 59 12 6 6 26 12 44 12 27 1 34 6 36 24 4 28 -14 52 -39
52 -30 0 -87 32 -92 51 -4 14 -14 19 -40 19 -20 0 -39 5 -42 10 -3 6 -52 10
-110 10 -58 0 -107 4 -110 10 -3 6 -25 10 -49 10 -30 0 -48 6 -61 20 -10 11
-30 20 -45 20 -15 0 -33 7 -40 15 -21 25 5 45 61 45 26 0 51 5 54 10 4 6 70
10 164 10 145 0 159 2 176 20 16 17 31 20 114 21 104 1 146 15 167 58 28 55
54 71 119 71 68 0 90 -14 97 -60 l3 -25 135 -3 135 -3 45 46 c26 27 53 45 66
45 13 0 26 5 29 10 3 6 24 10 45 10 21 0 42 5 45 10 3 6 19 10 34 10 20 0 34
8 45 25 15 22 23 25 82 25 49 0 76 -6 114 -25 56 -29 117 -32 160 -10 18 9 40
13 55 9 16 -4 34 0 50 10 21 14 77 16 463 16 413 0 440 1 455 18 21 24 22 66
1 97 -13 20 -25 25 -55 25 -28 0 -39 4 -39 15 0 12 16 15 84 15 88 0 103 7
111 49 6 30 -4 51 -24 51 -9 0 -46 29 -81 65 l-64 65 -228 0 c-140 0 -229 4
-233 10 -3 6 -19 10 -36 10 -16 0 -29 5 -29 10 0 6 -28 10 -64 10 -36 0 -68
-4 -71 -10 -3 -5 -17 -10 -30 -10 -13 0 -27 5 -30 10 -4 6 -53 10 -115 10 -62
0 -111 4 -115 10 -3 6 -19 10 -35 10 -16 0 -32 5 -35 10 -4 6 -102 10 -260 10
-158 0 -256 4 -260 10 -8 14 -198 13 -212 -1 -8 -8 -13 -8 -17 0 -4 6 -29 11
-55 11 -31 0 -53 5 -61 15 -7 8 -21 15 -31 15 -10 0 -30 5 -44 12 -19 9 -28 9
-37 0 -15 -15 -164 -16 -173 -2 -3 6 -21 10 -38 10 -33 1 -67 19 -67 38 0 5
17 12 38 15 73 11 102 19 113 33 7 9 32 14 70 14 32 0 61 5 64 10 3 6 21 10
40 10 19 0 37 5 40 10 4 6 78 10 191 10 101 0 192 4 202 9 48 24 101 31 243
31 100 0 159 4 166 11 7 7 29 9 60 5 126 -17 164 -18 181 -4 9 8 32 20 50 28
17 7 32 16 32 19 0 4 -13 19 -28 34 -26 25 -35 27 -109 27 -45 0 -85 -4 -88
-10 -3 -5 -28 -10 -55 -10 -39 0 -52 4 -60 20 -10 19 -21 20 -154 20 -139 0
-143 1 -166 25 -22 23 -30 25 -121 25 -87 0 -98 2 -104 19 -6 21 -39 30 -133
38 -42 3 -68 1 -78 -8 -11 -9 -18 -9 -26 -1 -7 7 -26 12 -43 12 -17 0 -37 6
-43 12 -10 10 -17 10 -31 1 -23 -14 -61 8 -61 36 0 33 33 51 93 51 31 0 59 5
62 10 3 6 46 10 95 10 49 0 92 5 95 10 4 6 61 10 139 10 103 0 136 3 145 14
11 13 35 17 184 32 47 5 57 9 57 24 0 11 -11 25 -24 32 -41 23 -104 67 -111
78 -3 5 -24 10 -45 10 -21 0 -42 5 -45 10 -10 16 -121 12 -135 -5 -9 -11 -35
-15 -106 -15 l-94 0 -120 -60 -120 -60 -94 0 c-53 0 -98 4 -101 10 -3 6 -28
10 -55 10 -27 0 -52 5 -55 10 -3 6 -35 10 -71 10 -35 0 -72 4 -82 9 -9 6 -29
12 -43 15 -15 3 -51 22 -80 43 -30 20 -72 40 -94 44 -81 16 -101 22 -127 45
-23 19 -25 24 -13 34 20 17 19 34 -5 55 -11 10 -20 23 -20 29 0 19 54 66 76
66 13 0 26 5 29 10 3 6 42 10 85 10 43 0 82 5 85 10 3 6 50 10 106 10 80 0
108 -4 139 -20 22 -11 48 -20 58 -20 11 0 22 9 25 20 3 11 14 20 24 20 10 0
36 9 58 20 24 12 59 20 91 20 56 0 84 19 84 58 0 11 5 24 12 28 6 4 64 6 129
5 110 -2 119 -1 131 18 7 12 20 21 29 21 9 0 33 7 53 15 20 8 39 14 43 13 4
-2 17 11 28 29 19 31 23 32 84 33 53 0 62 -2 52 -14 -10 -11 -2 -20 42 -45 43
-24 66 -31 109 -31 69 0 94 22 85 74 -3 19 -1 38 6 45 7 7 50 11 107 11 83 0
99 3 115 20 9 10 37 22 61 26 24 3 47 10 50 15 3 5 16 9 28 9 13 0 29 7 36 15
24 28 75 44 150 47 66 3 75 5 78 23 3 26 -58 55 -117 55 -26 0 -63 11 -101 30
-55 28 -68 30 -164 30 -59 0 -108 4 -111 10 -3 6 -26 10 -50 10 -24 0 -47 -4
-50 -10 -3 -5 -48 -10 -98 -10 -71 0 -98 4 -117 17 -21 15 -56 18 -212 21
-143 3 -192 1 -203 -8 -12 -10 -19 -10 -27 -2 -15 15 -264 17 -273 2 -3 -5
-33 -10 -65 -10 -32 0 -62 -4 -65 -10 -3 -6 -52 -10 -110 -10 -58 0 -107 -4
-110 -10 -3 -6 -52 -10 -111 -10 -64 0 -112 -5 -124 -12 -16 -10 -23 -9 -45
12 l-25 24 32 33 c57 58 75 63 249 63 94 0 160 4 164 10 4 6 78 10 190 10 167
0 188 2 217 20 18 11 47 20 63 20 17 1 41 7 54 14 22 12 31 11 78 -12 51 -25
53 -25 73 -7 14 13 20 29 18 49 -3 28 -7 31 -42 34 -21 2 -43 -1 -49 -7 -14
-14 -114 -14 -122 -1 -3 6 -24 10 -45 10 -21 0 -42 5 -45 10 -3 6 -35 10 -70
10 -35 0 -67 -4 -70 -10 -4 -6 -57 -10 -125 -10 -68 0 -121 4 -125 10 -4 6
-53 10 -115 10 -62 0 -111 4 -115 10 -3 6 -28 10 -54 10 -35 0 -53 5 -65 19
-24 26 -13 41 29 41 19 0 37 5 40 10 4 6 58 10 130 10 72 0 126 4 130 10 3 6
46 10 94 10 84 0 88 1 99 25 9 20 19 25 50 25 39 0 62 14 62 37 0 8 -13 13
-35 13 -20 0 -55 9 -77 20 -32 15 -62 20 -129 20 -48 0 -91 -4 -94 -10 -3 -5
-37 -10 -75 -10 -38 0 -72 -4 -75 -10 -3 -5 -46 -10 -95 -10 -49 0 -92 -4 -95
-10 -8 -13 -98 -13 -112 1 -7 7 -40 8 -94 5 -202 -15 -302 -17 -312 -7 -15 15
-823 15 -832 1 -3 -5 -26 -10 -49 -10 -27 0 -48 -6 -56 -15 -10 -12 -47 -15
-211 -15 -121 0 -200 -4 -204 -10 -3 -5 -28 -10 -54 -10 -26 0 -52 -5 -58 -11
-6 -6 -23 -9 -39 -7 -24 2 -29 7 -27 26 4 29 -14 64 -30 60 -7 -1 -27 4 -45
11 -25 10 -36 11 -45 2 -6 -6 -21 -11 -32 -11 -12 0 -32 -11 -45 -25 l-23 -25
-383 0 c-244 0 -385 -4 -389 -10 -3 -6 -52 -10 -110 -10 -58 0 -107 -4 -110
-10 -10 -16 -52 -12 -90 10 -25 14 -54 20 -99 20 -44 0 -67 5 -76 15 -7 8 -25
15 -39 15 -17 0 -38 11 -56 30 l-29 30 -352 0 c-225 0 -355 -4 -359 -10 -4 -6
-140 -10 -375 -10 -235 0 -371 -4 -375 -10 -7 -11 -787 -14 -799 -3 -12 12 76
93 101 93 31 0 40 26 18 50 -15 16 -31 20 -85 20 -64 0 -67 1 -105 41 l-40 41
-356 -6 c-270 -5 -363 -4 -383 5 -20 10 -29 10 -38 1 -15 -15 -274 -17 -283
-2 -11 18 -64 11 -115 -15 -56 -28 -107 -32 -136 -10 -13 10 -45 14 -106 15
-48 0 -90 5 -93 10 -3 6 -48 10 -99 10 -71 0 -97 -4 -106 -15 -9 -11 -34 -15
-97 -15 -46 0 -93 -5 -104 -10 -14 -8 -27 -7 -49 5 -27 14 -32 14 -54 0 -21
-14 -25 -14 -36 0 -16 19 -80 20 -106 0 -11 -8 -42 -14 -74 -15 -31 0 -61 -5
-68 -12 -8 -8 -15 -8 -27 2 -13 10 -20 11 -39 0 -18 -9 -28 -9 -46 0 -12 6
-31 9 -42 7 -12 -4 -32 3 -49 15 -24 18 -31 19 -44 8 -24 -20 -39 1 -24 33 12
26 15 26 113 29 l101 3 3 27 c3 25 5 26 35 15 18 -6 52 -23 76 -39 46 -28 113
-38 126 -18 3 6 35 10 70 10 54 0 66 3 75 20 10 19 21 20 169 20 129 0 161 3
171 15 8 9 29 15 56 15 23 0 46 5 49 10 4 6 58 10 131 10 68 0 124 3 124 6 0
18 -24 44 -40 44 -11 0 -20 3 -20 8 1 16 27 52 53 72 32 25 38 70 9 70 -10 0
-23 -5 -30 -12 -9 -9 -18 -8 -37 2 -21 12 -30 12 -47 1 -11 -7 -22 -10 -25 -8
-7 7 50 57 64 57 7 0 13 6 13 13 0 6 23 25 50 40 28 16 50 34 50 41 0 16 -26
38 -61 53 -22 9 -25 16 -21 42 3 21 0 31 -9 32 -8 1 4 5 26 8 34 5 40 10 40
31 l0 25 -165 3 c-90 1 -169 7 -174 12 -6 6 -36 10 -67 10 -32 0 -61 5 -64 10
-8 13 -78 13 -90 1 -6 -5 -50 -12 -100 -15 -49 -2 -109 -8 -131 -11 -26 -4
-44 -3 -48 4 -4 6 -35 11 -70 11 -59 0 -117 18 -131 41 -4 5 5 9 19 9 14 0 28
5 31 10 3 6 32 10 64 10 40 0 63 5 71 15 10 12 39 15 146 15 78 0 135 4 139
10 3 6 21 10 40 10 19 0 37 5 40 10 3 6 24 10 45 10 21 0 42 5 45 10 3 6 28
10 55 10 27 0 52 5 55 10 3 6 30 10 59 10 41 0 57 5 72 21 16 18 27 20 69 16
65 -6 101 7 153 57 45 43 72 87 72 118 0 15 -8 18 -59 18 -63 0 -81 10 -56 30
9 7 15 29 15 51 l0 39 69 0 c66 0 71 1 83 28 11 23 20 27 63 30 28 2 54 7 59
13 6 5 44 9 86 9 69 0 79 3 100 25 13 14 33 25 46 25 26 0 48 24 41 44 -3 7 0
19 6 25 13 13 4 24 -26 27 -12 1 -25 3 -29 3 -5 1 -8 8 -8 16 0 8 -22 26 -50
40 -47 24 -57 25 -224 25 -167 0 -177 1 -222 25 -41 22 -59 25 -148 25 -56 0
-106 4 -111 9 -6 5 -41 12 -80 15 -113 8 -155 17 -155 32 0 9 11 14 29 14 21
0 30 6 34 21 5 18 11 20 36 14 20 -4 31 -3 31 4 0 6 -4 11 -9 11 -6 0 -11 15
-13 33 l-3 32 -180 3 c-99 1 -184 7 -189 12 -14 14 -1103 14 -1111 0z m778
-176 c22 -4 37 -12 37 -20 0 -11 -21 -14 -93 -14 -81 0 -96 -3 -112 -20 -26
-29 -76 -26 -114 6 -35 29 -38 41 -13 47 27 7 252 8 295 1z m-4688 -1050 c17
-9 48 -20 70 -25 63 -12 115 -33 112 -44 -2 -5 -23 -11 -48 -13 -24 -2 -50 -8
-57 -14 -9 -8 -16 -8 -24 0 -7 7 -41 12 -78 12 -36 0 -70 4 -75 9 -6 6 -32 11
-59 13 -61 4 -69 21 -20 44 29 14 40 15 55 6 28 -18 57 -14 69 8 13 24 17 24
55 4z m-72 -223 c4 -16 15 -20 53 -23 27 -2 49 -7 49 -13 0 -15 -115 -23 -242
-17 l-113 5 0 34 0 33 124 0 c114 0 124 -2 129 -19z m2421 -50 c16 -16 25 -34
22 -40 -5 -7 -90 -11 -261 -11 -158 0 -256 -4 -260 -10 -3 -5 -24 -10 -45 -10
-21 0 -42 5 -45 10 -3 6 -28 10 -55 10 -45 0 -50 3 -56 25 -14 57 -24 55 339
55 l333 0 28 -29z m-3562 -4139 l27 -16 -26 -13 c-14 -7 -44 -13 -67 -13 -23
0 -47 -5 -52 -10 -16 -16 -326 -9 -332 8 -2 8 7 12 26 12 16 0 37 9 47 20 30
33 72 39 215 33 95 -4 143 -10 162 -21z m12501 -2764 c4 -14 -15 -50 -47 -85
-17 -20 -30 -23 -87 -23 -37 0 -71 5 -74 10 -3 6 -15 10 -26 10 -10 0 -28 6
-39 12 -16 10 -24 10 -40 0 -21 -13 -72 -16 -83 -5 -4 3 0 15 10 25 12 14 31
18 83 18 58 0 70 3 90 25 22 23 30 25 116 25 65 0 94 -4 97 -12z m-8806 -4043
l22 -39 -32 -28 c-35 -30 -57 -34 -89 -17 -29 16 -98 -7 -98 -33 0 -10 -7 -18
-15 -18 -8 0 -25 -20 -37 -45 -16 -33 -28 -45 -43 -45 -12 0 -30 -9 -40 -20
-15 -16 -31 -20 -90 -20 -64 0 -73 -2 -78 -20 -5 -19 -14 -20 -146 -20 l-141
0 0 43 c0 52 -18 72 -72 82 -31 6 -38 12 -38 30 0 35 25 51 55 35 20 -11 29
-10 58 3 19 9 40 24 48 33 8 9 31 27 51 40 36 23 45 24 222 24 112 0 187 4
191 10 3 6 22 10 41 10 19 0 42 4 52 9 39 20 79 29 117 28 35 -2 42 -7 62 -42z
m365 18 c3 -24 8 -29 43 -33 23 -3 57 -16 78 -28 28 -18 40 -21 56 -13 13 7
22 8 26 1 9 -15 51 -12 65 5 16 20 89 20 126 0 22 -11 67 -15 195 -15 91 0
169 3 173 8 4 4 86 7 181 7 151 0 175 2 192 18 11 9 34 17 51 17 17 0 34 5 37
10 3 6 37 10 75 10 38 0 72 5 75 10 4 6 53 10 115 10 62 0 111 -4 115 -10 3
-5 28 -10 56 -10 45 0 49 -2 49 -24 0 -31 -15 -41 -61 -37 -30 2 -37 -2 -42
-18 -5 -19 -13 -21 -87 -21 -73 0 -82 -2 -87 -20 -5 -18 -14 -20 -99 -20 -52
0 -94 -4 -94 -9 0 -5 -20 -21 -45 -35 -25 -15 -45 -31 -45 -36 0 -15 -167 -12
-190 2 -16 10 -24 10 -40 0 -32 -19 -77 -15 -83 8 -5 19 -14 20 -207 20 -115
0 -209 -4 -220 -10 -13 -7 -21 -7 -25 0 -4 6 -81 10 -201 10 -183 0 -195 -1
-206 -20 -9 -14 -24 -20 -47 -20 -49 0 -71 24 -71 76 0 41 -2 43 -55 73 -75
43 -97 87 -52 109 12 6 72 11 134 11 l112 1 3 -27z m2198 -1268 c19 -20 33
-25 72 -25 37 0 50 4 55 18 10 26 24 31 52 21 15 -6 62 -7 112 -3 82 6 86 5
92 -15 4 -17 13 -21 45 -21 23 0 44 5 47 10 11 18 90 12 108 -8 19 -21 13 -32
-18 -32 -12 0 -30 -9 -40 -20 -15 -16 -31 -20 -87 -20 -51 0 -68 3 -68 14 0
20 -23 26 -106 26 -51 0 -74 -4 -74 -12 0 -7 -14 -27 -32 -45 -28 -29 -39 -33
-82 -33 -35 0 -59 -7 -76 -20 -21 -16 -41 -20 -125 -20 l-101 0 -18 31 c-13
23 -15 34 -7 42 6 6 11 19 11 28 0 10 15 29 33 44 17 15 35 36 39 46 6 16 18
19 76 19 60 0 71 -3 92 -25z m-2345 -515 c3 -11 14 -20 24 -20 10 0 24 -6 30
-13 8 -11 2 -20 -31 -41 -33 -21 -56 -28 -112 -31 -39 -2 -121 -7 -183 -11
-138 -8 -173 3 -173 53 0 23 5 33 15 33 8 0 15 -6 15 -14 0 -16 88 -48 96 -35
3 5 15 9 28 9 32 0 60 33 54 65 l-5 25 118 0 c109 0 118 -1 124 -20z"/>
<path d="M9268 16030 c-20 -11 -40 -24 -43 -30 -3 -5 -21 -10 -40 -10 -19 0
-37 -5 -40 -10 -5 -8 -11 -8 -20 0 -20 16 -89 8 -93 -10 -3 -19 85 -84 94 -69
4 7 10 7 17 0 6 -6 29 -11 50 -11 30 0 40 4 44 20 3 11 9 20 13 20 5 0 22 12
39 26 24 19 31 34 31 60 0 39 -2 40 -52 14z"/>
<path d="M7740 15615 c-27 -29 -35 -30 -74 -10 -16 9 -30 14 -30 13 -31 -61
-23 -57 -115 -60 -84 -3 -86 -3 -86 -28 l0 -25 162 -3 162 -2 6 44 c4 25 13
51 21 57 8 6 14 18 14 25 0 23 -35 16 -60 -11z"/>
<path d="M21400 6980 c-8 -5 -24 -10 -36 -10 -26 0 -54 -30 -54 -58 0 -21 5
-22 73 -22 68 0 75 2 102 30 28 29 28 30 10 50 -19 21 -69 27 -95 10z"/>
<path d="M3876 5671 c-10 -11 -27 -23 -37 -26 -12 -4 -19 -16 -19 -31 0 -23 2
-24 73 -24 68 0 75 2 101 29 44 46 33 65 -40 69 -50 2 -63 -1 -78 -17z"/>
<path d="M18865 3970 c-3 -6 -50 -10 -106 -10 -89 0 -104 -3 -139 -25 -22 -14
-52 -25 -67 -25 -34 -1 -83 -42 -83 -70 0 -19 5 -20 169 -20 103 0 172 -4 176
-10 3 -5 21 -10 40 -10 19 0 37 5 40 10 3 6 16 10 28 10 12 0 37 9 55 20 27
16 50 20 131 20 119 0 131 4 131 40 0 54 -22 62 -185 59 -99 -1 -150 2 -158
10 -14 14 -24 14 -32 1z"/>
<path d="M5939 3608 c-3 -10 -10 -37 -15 -59 -5 -25 -3 -26 55 -39 37 -8 83
-10 123 -6 35 4 77 7 93 7 58 0 77 8 73 32 -2 17 -11 23 -40 25 -26 2 -39 9
-43 23 -6 17 -16 19 -126 19 -65 0 -119 -1 -120 -2z"/>
<path d="M6545 3600 c-3 -5 -28 -10 -54 -10 -50 0 -81 -20 -81 -53 0 -15 19
-17 181 -17 l180 0 -3 23 c-3 20 -9 22 -64 25 -46 2 -66 8 -79 22 -19 21 -69
27 -80 10z"/>
<path d="M7772 3468 c-18 -18 -15 -53 6 -71 14 -13 38 -17 103 -17 66 0 91 -4
117 -20 50 -31 113 -27 151 9 37 34 40 58 8 70 -13 5 -29 16 -36 25 -19 23
-78 21 -93 -4 -11 -17 -24 -20 -91 -20 -70 0 -79 2 -84 20 -4 15 -14 20 -37
20 -18 0 -37 -5 -44 -12z"/>
<path d="M5746 3411 c-3 -4 -33 -11 -67 -14 -34 -3 -66 -10 -72 -16 -6 -6 -21
-11 -33 -11 -13 0 -26 -4 -29 -10 -3 -5 -28 -10 -55 -10 -43 0 -52 -4 -72 -30
-15 -20 -30 -30 -49 -30 -14 0 -32 -7 -39 -15 -8 -10 -31 -15 -71 -15 -32 0
-61 -4 -64 -10 -4 -6 -63 -10 -144 -10 -166 0 -193 -8 -189 -60 2 -24 10 -38
26 -46 12 -6 33 -20 45 -32 12 -11 42 -23 67 -27 80 -13 392 -17 404 -5 6 6
56 10 117 10 99 0 110 2 136 24 20 16 46 26 86 30 31 3 83 9 115 12 31 3 61
10 67 15 5 5 55 9 110 9 89 0 104 3 120 20 11 12 31 20 51 20 38 0 116 32 159
65 30 22 68 31 190 41 33 3 69 9 80 14 11 5 40 11 65 12 38 3 45 6 48 26 3 22
2 22 -111 22 -90 0 -117 3 -127 15 -14 17 -85 21 -95 5 -3 -5 -17 -10 -30 -10
-13 0 -27 5 -30 10 -8 12 -601 14 -609 1z"/>
<path d="M8150 3246 c0 -37 85 -76 166 -76 42 0 65 -5 74 -15 10 -12 9 -15 -4
-15 -9 0 -21 -11 -26 -25 -8 -22 -16 -25 -55 -25 -44 0 -45 -1 -45 -33 0 -41
15 -57 55 -57 46 0 49 -10 13 -47 l-32 -33 -146 0 c-134 0 -148 -2 -165 -20
-10 -11 -26 -20 -36 -20 -10 0 -26 -11 -35 -25 -16 -24 -21 -25 -119 -25 -89
0 -104 -2 -120 -20 -14 -16 -31 -20 -81 -20 -45 0 -74 -6 -99 -20 -20 -11 -47
-20 -60 -20 -22 0 -25 -5 -25 -33 0 -58 21 -67 148 -67 63 0 113 -4 117 -10 3
-5 38 -10 76 -10 55 0 80 -5 121 -26 29 -15 54 -23 55 -18 21 61 77 99 114 75
13 -7 89 -11 232 -11 l214 0 16 -40 15 -40 251 0 251 0 0 33 c0 21 -8 41 -20
52 -30 27 -25 54 12 69 24 11 36 11 50 2 14 -8 23 -8 38 2 11 6 42 12 68 12
46 0 51 3 91 51 41 48 44 49 65 34 36 -26 46 -28 64 -13 16 14 36 21 105 35
22 4 27 10 25 27 -3 19 -10 21 -80 23 -43 1 -80 -3 -84 -8 -3 -5 -95 -9 -204
-9 -181 0 -203 2 -235 20 -20 11 -46 20 -60 20 -13 0 -32 11 -43 25 -15 18
-29 25 -55 25 -20 0 -39 5 -42 10 -3 6 -24 10 -46 10 -44 0 -48 8 -19 35 20
19 27 59 11 69 -5 3 -14 -1 -21 -9 -11 -14 -15 -14 -31 1 -28 25 -24 44 10 44
20 0 30 6 34 20 5 18 14 20 76 20 68 0 71 1 71 23 0 36 -30 57 -83 57 -25 0
-49 -4 -52 -10 -3 -5 -21 -10 -40 -10 -19 0 -37 5 -40 10 -3 6 -22 10 -41 10
-19 0 -43 6 -54 12 -15 10 -26 10 -52 0 -21 -8 -36 -8 -42 -2 -6 6 -63 10
-128 10 l-118 0 0 -24z"/>
<path d="M10932 3128 c-31 -31 10 -104 46 -82 9 6 24 8 32 4 60 -29 182 -41
195 -19 5 6 13 3 22 -10 10 -15 25 -21 53 -21 21 0 42 -4 45 -10 8 -13 72 -13
80 0 4 7 12 7 25 0 10 -5 32 -10 49 -10 25 0 34 7 50 38 19 38 26 68 23 105
-2 16 -24 17 -305 17 -222 0 -306 -3 -315 -12z"/>
<path d="M10155 2840 c-3 -5 -28 -10 -54 -10 -56 0 -71 -12 -71 -57 l0 -33 88
0 c98 0 112 7 112 57 0 27 -5 35 -26 43 -32 13 -41 13 -49 0z"/>
<path d="M11580 2781 c-36 -20 -91 -31 -152 -31 -52 0 -68 -4 -83 -20 -13 -14
-31 -20 -61 -20 -41 0 -109 -29 -126 -55 -19 -26 -7 -72 25 -103 32 -31 36
-32 119 -32 48 0 90 5 93 10 3 6 19 10 34 10 16 0 34 7 41 15 9 11 34 15 95
15 88 0 107 6 168 55 28 23 37 37 37 61 0 30 -25 64 -47 64 -5 0 -18 9 -28 20
-19 21 -85 27 -115 11z"/>
<path d="M6644 2716 c-31 -17 -54 -37 -54 -47 0 -5 60 -9 134 -9 107 0 136 3
146 15 10 13 10 19 -5 35 -16 17 -30 20 -109 19 -50 -1 -101 -6 -112 -13z"/>
<path d="M6053 2484 c-32 -25 -39 -46 -27 -78 5 -13 24 -16 108 -16 65 0 106
-4 114 -12 16 -16 58 4 67 33 6 18 1 28 -26 50 -29 24 -43 29 -96 29 -34 0
-65 5 -68 10 -11 17 -39 11 -72 -16z"/>
<path d="M7265 2490 c-15 -16 -31 -20 -85 -20 -36 0 -70 -4 -75 -9 -6 -6 -35
-11 -65 -13 -51 -3 -55 -5 -55 -28 0 -17 6 -26 20 -28 11 -2 29 -8 41 -13 21
-11 156 -7 227 6 24 5 42 3 52 -5 12 -10 18 -10 29 -1 11 9 20 10 36 1 34 -18
84 -9 88 17 2 15 -3 23 -20 28 -51 14 -78 28 -78 40 0 42 -83 60 -115 25z"/>
<path d="M9065 2340 c-10 -11 -30 -20 -45 -20 -14 0 -41 -11 -60 -25 -19 -14
-40 -25 -47 -25 -7 0 -17 -9 -23 -20 -6 -11 -17 -20 -24 -20 -8 0 -16 9 -19
20 -5 18 -14 20 -81 20 -74 0 -76 -1 -76 -25 0 -23 3 -25 48 -25 36 0 54 -5
67 -20 16 -18 31 -20 134 -20 l117 0 49 51 c45 45 53 50 80 43 17 -3 68 -7
115 -8 l85 -1 3 28 c2 17 -4 37 -14 48 -15 17 -32 19 -154 19 -124 0 -139 -2
-155 -20z"/>
<path d="M9547 2342 c-29 -32 -21 -65 19 -87 29 -15 39 -17 55 -7 10 7 27 12
37 12 28 0 52 32 52 68 l0 32 -73 0 c-59 0 -77 -4 -90 -18z"/>
</g>
</svg>
